<mxfile host="app.diagrams.net" modified="2024-03-18T03:31:28.012Z" agent="Mozilla/5.0 (Windows NT 10.0; Win64; x64) AppleWebKit/537.36 (KHTML, like Gecko) Chrome/122.0.0.0 Safari/537.36" etag="8rSIqcRjGNxjDwgMVxta" version="24.0.7" type="github">
  <diagram name="Page-1" id="2YBvvXClWsGukQMizWep">
    <mxGraphModel dx="1195" dy="615" grid="1" gridSize="10" guides="1" tooltips="1" connect="1" arrows="1" fold="1" page="1" pageScale="1" pageWidth="850" pageHeight="1100" math="0" shadow="0">
      <root>
        <mxCell id="0" />
        <mxCell id="1" parent="0" />
        <mxCell id="MKZWxh-Y8WFpVKTy_a4f-1" value="Call API - Update ticket (Info ticket)" style="html=1;verticalAlign=bottom;endArrow=block;curved=0;rounded=0;shadow=1;" edge="1" parent="1" target="MKZWxh-Y8WFpVKTy_a4f-3">
          <mxGeometry x="-0.0015" width="80" relative="1" as="geometry">
            <mxPoint x="240" y="210" as="sourcePoint" />
            <mxPoint x="585" y="210" as="targetPoint" />
            <mxPoint as="offset" />
          </mxGeometry>
        </mxCell>
        <mxCell id="MKZWxh-Y8WFpVKTy_a4f-2" value="pepsi" style="shape=umlLifeline;perimeter=lifelinePerimeter;whiteSpace=wrap;html=1;container=0;dropTarget=0;collapsible=0;recursiveResize=0;outlineConnect=0;portConstraint=eastwest;newEdgeStyle={&quot;edgeStyle&quot;:&quot;elbowEdgeStyle&quot;,&quot;elbow&quot;:&quot;vertical&quot;,&quot;curved&quot;:0,&quot;rounded&quot;:0};" vertex="1" parent="1">
          <mxGeometry x="540" y="120" width="120" height="360" as="geometry" />
        </mxCell>
        <mxCell id="MKZWxh-Y8WFpVKTy_a4f-3" value="" style="html=1;points=[[0,0,0,0,5],[0,1,0,0,-5],[1,0,0,0,5],[1,1,0,0,-5]];perimeter=orthogonalPerimeter;outlineConnect=0;targetShapes=umlLifeline;portConstraint=eastwest;newEdgeStyle={&quot;curved&quot;:0,&quot;rounded&quot;:0};" vertex="1" parent="MKZWxh-Y8WFpVKTy_a4f-2">
          <mxGeometry x="55" y="60" width="10" height="240" as="geometry" />
        </mxCell>
        <mxCell id="MKZWxh-Y8WFpVKTy_a4f-4" value="alternative" style="shape=umlFrame;whiteSpace=wrap;html=1;pointerEvents=0;" vertex="1" parent="1">
          <mxGeometry x="120" y="240" width="600" height="200" as="geometry" />
        </mxCell>
        <mxCell id="MKZWxh-Y8WFpVKTy_a4f-5" value="asiaservice" style="shape=umlLifeline;perimeter=lifelinePerimeter;whiteSpace=wrap;html=1;container=0;dropTarget=0;collapsible=0;recursiveResize=0;outlineConnect=0;portConstraint=eastwest;newEdgeStyle={&quot;edgeStyle&quot;:&quot;elbowEdgeStyle&quot;,&quot;elbow&quot;:&quot;vertical&quot;,&quot;curved&quot;:0,&quot;rounded&quot;:0};shadow=1;" vertex="1" parent="1">
          <mxGeometry x="180" y="120" width="120" height="360" as="geometry" />
        </mxCell>
        <mxCell id="MKZWxh-Y8WFpVKTy_a4f-6" value="" style="html=1;points=[[0,0,0,0,5],[0,1,0,0,-5],[1,0,0,0,5],[1,1,0,0,-5]];perimeter=orthogonalPerimeter;outlineConnect=0;targetShapes=umlLifeline;portConstraint=eastwest;newEdgeStyle={&quot;curved&quot;:0,&quot;rounded&quot;:0};" vertex="1" parent="MKZWxh-Y8WFpVKTy_a4f-5">
          <mxGeometry x="55" y="60" width="10" height="240" as="geometry" />
        </mxCell>
        <mxCell id="MKZWxh-Y8WFpVKTy_a4f-7" value="" style="html=1;points=[[0,0,0,0,5],[0,1,0,0,-5],[1,0,0,0,5],[1,1,0,0,-5]];perimeter=orthogonalPerimeter;outlineConnect=0;targetShapes=umlLifeline;portConstraint=eastwest;newEdgeStyle={&quot;curved&quot;:0,&quot;rounded&quot;:0};" vertex="1" parent="MKZWxh-Y8WFpVKTy_a4f-5">
          <mxGeometry x="65" y="150" width="10" height="45" as="geometry" />
        </mxCell>
        <mxCell id="MKZWxh-Y8WFpVKTy_a4f-8" value="" style="endArrow=none;dashed=1;html=1;rounded=0;" edge="1" parent="1">
          <mxGeometry width="50" height="50" relative="1" as="geometry">
            <mxPoint x="120" y="341" as="sourcePoint" />
            <mxPoint x="720" y="341" as="targetPoint" />
            <Array as="points">
              <mxPoint x="420" y="339.2" />
            </Array>
          </mxGeometry>
        </mxCell>
        <mxCell id="MKZWxh-Y8WFpVKTy_a4f-9" value="&lt;font style=&quot;font-size: 11px;&quot;&gt;Response - Successfully updated - Status code&lt;/font&gt;" style="html=1;verticalAlign=bottom;endArrow=open;dashed=1;endSize=8;curved=0;rounded=0;" edge="1" parent="1">
          <mxGeometry relative="1" as="geometry">
            <mxPoint x="595" y="390" as="sourcePoint" />
            <mxPoint x="245" y="390" as="targetPoint" />
            <mxPoint as="offset" />
          </mxGeometry>
        </mxCell>
        <mxCell id="MKZWxh-Y8WFpVKTy_a4f-10" value="Response - Error Message - Status Code (Callback)" style="html=1;verticalAlign=bottom;endArrow=block;curved=0;rounded=0;entryX=1;entryY=0;entryDx=0;entryDy=5;" edge="1" parent="1" source="MKZWxh-Y8WFpVKTy_a4f-3" target="MKZWxh-Y8WFpVKTy_a4f-7">
          <mxGeometry relative="1" as="geometry">
            <mxPoint x="325" y="245" as="sourcePoint" />
          </mxGeometry>
        </mxCell>
        <mxCell id="MKZWxh-Y8WFpVKTy_a4f-11" value="" style="html=1;verticalAlign=bottom;endArrow=open;dashed=1;endSize=8;curved=0;rounded=0;exitX=1;exitY=1;exitDx=0;exitDy=-5;" edge="1" parent="1" source="MKZWxh-Y8WFpVKTy_a4f-7" target="MKZWxh-Y8WFpVKTy_a4f-3">
          <mxGeometry relative="1" as="geometry">
            <mxPoint x="325" y="315" as="targetPoint" />
          </mxGeometry>
        </mxCell>
        <mxCell id="MKZWxh-Y8WFpVKTy_a4f-12" value="[Update failed]" style="text;strokeColor=none;align=center;fillColor=none;html=1;verticalAlign=middle;whiteSpace=wrap;rounded=0;" vertex="1" parent="1">
          <mxGeometry x="135" y="285" width="85" height="30" as="geometry" />
        </mxCell>
        <mxCell id="MKZWxh-Y8WFpVKTy_a4f-13" value="[Update success]" style="text;strokeColor=none;align=center;fillColor=none;html=1;verticalAlign=middle;whiteSpace=wrap;rounded=0;" vertex="1" parent="1">
          <mxGeometry x="130" y="380" width="95" height="30" as="geometry" />
        </mxCell>
        <mxCell id="MKZWxh-Y8WFpVKTy_a4f-14" value="Update ticket" style="text;strokeColor=none;align=center;fillColor=none;html=1;verticalAlign=middle;whiteSpace=wrap;rounded=0;fontSize=20;" vertex="1" parent="1">
          <mxGeometry width="160" height="80" as="geometry" />
        </mxCell>
      </root>
    </mxGraphModel>
  </diagram>
</mxfile>
